<svg width="29" height="27" viewBox="0 0 29 27" fill="none" xmlns="http://www.w3.org/2000/svg">
<rect x="0.501953" width="28" height="26.9461" rx="6" fill="#5D7285"/>
<path d="M20.2791 12.2222C19.631 13.0917 18.6911 13.6819 17.5859 13.7618C18.5123 14.8417 19.1113 16.2104 19.2265 17.7125C19.2697 18.276 19.2393 18.5504 19.1941 18.7771C19.753 18.6903 20.2662 18.5639 20.7071 18.4016C22.1902 17.8555 22.5015 17.0484 22.5015 16.4676C22.5015 14.7114 21.6213 13.1571 20.2791 12.2222Z" fill="white"/>
<path d="M16.13 12.411C16.5003 12.6181 16.908 12.7274 17.3312 12.7274C18.9258 12.7274 20.1535 11.186 20.1535 9.36368C20.1535 7.54115 18.9256 6 17.3312 6C16.6794 6 16.0644 6.25872 15.5664 6.7357C16.2633 7.62814 16.6605 8.79099 16.6605 10.0294C16.6605 10.8501 16.4863 11.6675 16.13 12.411Z" fill="white"/>
<path d="M15.5481 13.3457C14.6936 14.4263 13.5392 14.9629 12.3527 14.9629C11.0921 14.9629 9.96281 14.3643 9.15739 13.3457C7.55976 14.3914 6.50195 16.1966 6.50195 18.2444C6.50195 18.8751 6.84731 19.7541 8.49256 20.3599C9.51882 20.7377 10.8897 20.9458 12.3527 20.9458C13.8157 20.9458 15.1867 20.7377 16.2129 20.3599C17.8582 19.7541 18.2035 18.8751 18.2035 18.2444C18.2035 16.1966 17.1457 14.3914 15.5481 13.3457Z" fill="white"/>
<path d="M12.3527 13.9196C14.1968 13.9196 15.6164 12.1371 15.6164 10.0296C15.6164 7.9222 14.1966 6.13965 12.3527 6.13965C10.5088 6.13965 9.08887 7.92185 9.08887 10.0296C9.08887 12.1375 10.5089 13.9196 12.3527 13.9196Z" fill="white"/>
</svg>
