<svg width="24" height="25" viewBox="0 0 24 25" fill="none" xmlns="http://www.w3.org/2000/svg">
<g clip-path="url(#clip0_1_718)">
<path d="M17.9995 0.765625H6.00052C2.68537 0.765625 0 3.45221 0 6.76613V18.7651C0 22.079 2.68537 24.7656 6.00052 24.7656H17.9995C21.325 24.7656 24 22.079 24 18.7651V6.76613C24 3.45221 21.3146 0.765625 17.9995 0.765625ZM17.9995 2.53563C18.5614 2.54043 19.1168 2.65367 19.6341 2.8689C20.1513 3.08412 20.6202 3.39711 21.0139 3.78998C21.4077 4.18285 21.7186 4.6479 21.9289 5.15856C22.1392 5.66922 22.2448 6.21548 22.2395 6.76613V18.7651C22.2448 19.3158 22.1392 19.862 21.9289 20.3727C21.7186 20.8833 21.4077 21.3484 21.0139 21.7413C20.6202 22.1341 20.1513 22.4471 19.6341 22.6624C19.1168 22.8776 18.5614 22.9908 17.9995 22.9956H6.00052C4.86713 22.9838 3.78487 22.5316 2.99143 21.7384C2.19799 20.9452 1.75824 19.8758 1.76877 18.7651V6.76613C1.75824 5.65543 2.19799 4.58605 2.99143 3.79284C3.78487 2.99963 4.86713 2.54746 6.00052 2.53563H17.9995Z" fill="#FA7436"/>
<path d="M7.03649 9.89862C7.13322 9.77562 7.2606 9.60912 7.36262 9.49012C7.66813 9.16212 7.70777 9.11913 7.98579 8.87663C8.06825 8.81263 8.16604 8.73563 8.26171 8.66313C7.55607 9.22813 7.46621 9.85362 8.11371 10.2401C8.11265 10.2401 8.11265 10.2401 8.11265 10.2411C9.01808 10.7571 11.0023 10.6456 12.5679 9.98463C14.0844 9.34463 14.6441 8.42913 13.8957 7.88513C13.2387 7.76863 12.4553 7.75512 11.6266 7.86012L11.5404 7.72562L11.6118 7.50262C12.0991 7.46112 12.5621 7.47113 12.9617 7.53563C13.0584 7.55112 13.1858 7.57762 13.281 7.59662C13.4649 7.63912 13.5648 7.66463 13.6848 7.70113C13.8074 7.73563 13.9121 7.77013 14.0944 7.83413C14.2731 7.90063 14.3503 7.93062 14.4935 7.99812C14.6539 8.06736 14.8098 8.14567 14.9602 8.23263C16.1527 8.94213 15.4111 10.2366 13.3069 11.1236C11.2085 12.0076 8.53445 12.1466 7.33619 11.4456C7.33566 11.4446 7.33407 11.4436 7.3309 11.4426H7.33302C6.67865 11.0506 6.60994 10.4816 7.03649 9.89862ZM12.496 14.8586L12.4791 14.0616L11.8803 13.4316C9.90184 13.8556 7.95725 13.7646 6.87581 13.1621C6.87211 13.1581 6.86312 13.1541 6.85942 13.1501C6.24734 12.7936 6.09617 12.3336 6.14216 11.8336C5.99892 12.5651 5.98729 12.8291 6.0079 13.4551C6.03327 13.8471 6.27271 14.2086 6.75424 14.4936L6.75794 14.4976C7.91074 15.1756 10.3125 15.3226 12.496 14.8586ZM14.9935 15.7711C12.2011 16.8306 8.70623 16.8931 7.18819 15.9126C7.35213 16.2916 7.57519 16.6452 7.84995 16.9616C9.24325 17.8616 12.4511 17.8041 15.0131 16.8316C16.5126 16.2631 17.4587 15.5066 17.7072 14.7976L17.7769 14.5841C17.9424 14.0431 17.9736 13.5926 18 13.1916C17.9699 14.0621 16.8858 15.0521 14.9935 15.7711ZM8.82939 17.8116C8.91713 17.8906 9.19304 18.2111 10.5911 18.5651C10.969 18.6441 11.9204 18.8976 13.6779 18.5291L13.6885 18.3776L13.5495 18.1716C11.9189 18.5366 10.1075 18.4146 8.82939 17.8116ZM12.8645 11.5071L14.3492 12.5716C14.3492 12.5716 14.6669 12.7881 14.3672 12.9401C14.0685 13.0906 13.3016 13.4591 13.3016 13.4591L12.5441 13.1916L12.1641 13.3516L12.8343 13.9021L12.8396 14.7586L13.2334 14.5931L13.4945 13.8696C13.4945 13.8696 14.2963 13.5776 14.6145 13.4676C14.9343 13.3601 14.8915 13.7281 14.8915 13.7281L14.734 15.4836L15.2573 15.2636L16.1188 12.8951C16.1188 12.8951 16.5755 12.6851 16.8969 12.5006C17.2177 12.3161 17.3277 12.0101 17.3277 12.0101C17.3277 12.0101 17.0148 11.8826 16.6543 11.9851C16.2938 12.0866 15.8239 12.2676 15.8239 12.2676L13.3861 11.2881L12.8645 11.5071ZM9.72319 8.13913L10.7312 8.89862L11.0065 8.85963L10.4579 8.17813C10.4579 8.17813 10.3384 8.03712 10.4991 8.00363C10.6609 7.96962 11.07 7.89062 11.07 7.89062L11.3776 8.12312L11.5848 8.09413L11.3501 7.74112L11.4738 7.34962L11.2735 7.37713L11.0361 7.67513C11.0361 7.67513 10.6196 7.71213 10.4558 7.72513C10.2909 7.73713 10.3617 7.56963 10.3617 7.56963L10.6778 6.76562L10.4008 6.80412L9.67139 7.80862C9.67139 7.80862 9.42825 7.85063 9.25224 7.89813C9.0757 7.94513 8.98267 8.07413 8.98267 8.07413C8.98267 8.07413 9.11217 8.17313 9.29452 8.16963C9.47846 8.16613 9.72319 8.13913 9.72319 8.13913ZM14.7049 17.8981L14.0527 17.5756L13.9026 17.6251L14.2889 17.9521C14.2889 17.9521 14.3714 18.0186 14.2847 18.0541C14.198 18.0891 13.9771 18.1751 13.9771 18.1751L13.7947 18.0981L13.6864 18.1351L13.8381 18.2881L13.8233 18.5116L13.9364 18.4746L14.021 18.2931C14.021 18.2931 14.2504 18.2286 14.3418 18.2056C14.4327 18.1821 14.4121 18.2831 14.4121 18.2831L14.3259 18.7656L14.4766 18.7161L14.772 18.0781C14.772 18.0781 14.9026 18.0296 14.9962 17.9851C15.0897 17.9406 15.1267 17.8586 15.1267 17.8586C15.1267 17.8586 15.0437 17.8156 14.9412 17.8371C14.8381 17.8576 14.7049 17.8981 14.7049 17.8981Z" fill="#FA7436"/>
</g>
<defs>
<clipPath id="clip0_1_718">
<rect width="24" height="24" fill="white" transform="translate(0 0.765625)"/>
</clipPath>
</defs>
</svg>
