<svg width="25" height="26" viewBox="0 0 25 26" fill="none" xmlns="http://www.w3.org/2000/svg">
<path d="M18.4158 0.797762C20.1703 0.688107 21.9004 1.2973 23.2041 2.49132C24.3982 3.795 25.0074 5.52511 24.9099 7.29178V18.6715C25.0195 20.4382 24.3982 22.1683 23.2163 23.472C21.9126 24.666 20.1703 25.2752 18.4158 25.1656H7.03597C5.26929 25.2752 3.53916 24.666 2.23548 23.472C1.04145 22.1683 0.432246 20.4382 0.541902 18.6715V7.29178C0.432246 5.52511 1.04145 3.795 2.23548 2.49132C3.53916 1.2973 5.26929 0.688107 7.03597 0.797762H18.4158ZM18.099 6.3658C17.3436 5.6104 16.1252 5.6104 15.3698 6.3658L14.5535 7.19431C14.4317 7.31614 14.4317 7.52327 14.5535 7.64511C14.5535 7.64511 14.5774 7.66888 14.62 7.71119L14.9197 8.00925C15.093 8.18173 15.3094 8.39713 15.5267 8.61373L16.2635 9.35015C16.4172 9.50458 16.5192 9.60807 16.5273 9.6189C16.6613 9.76511 16.7466 9.96005 16.7466 10.1794C16.7466 10.618 16.3933 10.9835 15.9425 10.9835C15.7353 10.9835 15.5404 10.8982 15.4064 10.7642L13.3716 8.74166C13.2742 8.64419 13.1036 8.64419 13.0061 8.74166L7.19436 14.5534C6.79229 14.9554 6.5608 15.4915 6.54861 16.0642L6.47551 18.9518C6.47551 19.1102 6.52424 19.2564 6.6339 19.366C6.74356 19.4757 6.88976 19.5366 7.04815 19.5366H9.91139C10.4962 19.5366 11.0567 19.3051 11.4831 18.8908L19.683 10.6667C20.4262 9.91131 20.4262 8.69293 19.683 7.94971L18.099 6.3658Z" fill="#5D7285"/>
</svg>
