<svg width="37" height="37" viewBox="0 0 37 37" fill="none" xmlns="http://www.w3.org/2000/svg">
<path d="M0.5 18.3062C0.5 8.36503 8.55888 0.306152 18.5 0.306152C28.4411 0.306152 36.5 8.36503 36.5 18.3062C36.5 28.2473 28.4411 36.3062 18.5 36.3062C8.55888 36.3062 0.5 28.2473 0.5 18.3062Z" fill="#FA7436"/>
<path fill-rule="evenodd" clip-rule="evenodd" d="M17.0885 10.8062C20.4456 10.8062 23.177 13.5376 23.177 16.8947C23.177 18.2357 22.7359 19.4728 21.9984 20.4799L25.3249 23.8064C25.6906 24.1722 25.6906 24.7652 25.3249 25.1309C24.9591 25.4967 24.3661 25.4967 24.0003 25.1309L20.6739 21.8045C19.6668 22.542 18.4296 22.9832 17.0885 22.9832C13.7314 22.9832 11 20.2518 11 16.8947C11 13.5376 13.7314 10.8062 17.0885 10.8062ZM12.873 16.8948C12.873 19.2192 14.7638 21.1099 17.0882 21.1099C19.4125 21.1099 21.3033 19.2192 21.3033 16.8948C21.3033 14.5704 19.4125 12.6797 17.0882 12.6797C14.7638 12.6797 12.873 14.5704 12.873 16.8948Z" fill="white"/>
</svg>
