<svg width="785" height="192" viewBox="0 0 785 192" fill="none" xmlns="http://www.w3.org/2000/svg">
<g opacity="0.3" clip-path="url(#clip0_1_670)">
<path fill-rule="evenodd" clip-rule="evenodd" d="M525.424 116.581C522.629 119.261 523.429 118.947 516.926 116.987C511.224 115.131 513.929 114.517 508.823 117.498C504.225 120.281 496.719 123.053 493.225 125.211C494.532 128.192 505.724 137.97 508.429 141.983C507.426 142.493 506.625 142.911 505.532 143.421C503.83 144.245 504.236 144.245 502.23 143.015C497.835 140.44 483.724 132.205 480.929 130.975C477.232 132.623 467.427 137.772 464.035 137.564C462.435 137.459 459.831 137.053 460.338 134.989C461.634 129.943 470.436 127.171 476.139 124.596C478.438 123.564 477.841 123.668 478.337 121.093C478.946 118.321 482.744 98.1505 483.634 97.1181C484.028 96.805 487.128 95.4711 487.736 95.1579C488.041 97.0138 488.232 99.0668 488.334 101.027L489.337 112.452C489.337 114.308 489.641 116.465 489.934 118.217C492.538 116.883 495.13 115.746 497.835 114.412C511.235 107.824 508.834 112.255 511.934 104.843C513.737 100.725 513.737 98.2548 517.636 98.8696C516.926 107.116 519.124 112.255 525.424 116.581ZM411.628 36.8268C415.234 37.9635 414.423 38.0679 419.427 33.3239C423.822 29.2063 421.129 29.821 427.023 30.343C432.219 30.7489 440.221 30.0298 444.323 30.4474C444.424 33.6371 438.327 47.4282 437.527 52.265C438.632 52.265 439.522 52.265 440.728 52.265C442.633 52.265 442.227 52.4738 443.624 50.5135C446.521 46.1871 455.729 32.5004 457.825 30.2386C461.927 30.1342 472.826 30.343 475.824 28.8003C477.221 27.9768 479.419 26.3297 478.123 24.6827C474.821 20.7738 465.725 22.1077 459.527 22.3165C457.025 22.3165 457.633 22.2121 456.022 20.1591C454.32 17.8973 442.52 1.32237 441.325 0.812021C440.829 0.70763 437.426 0.812021 436.828 0.812021C437.234 2.66785 437.933 4.51209 438.632 6.36792L442.531 17.1665C443.23 18.8136 443.929 20.971 444.436 22.6181C441.539 22.5137 438.632 22.6181 435.634 22.6181C420.836 22.6181 424.938 25.599 418.931 20.2519C415.64 17.2709 414.637 15.1019 411.335 17.3753C415.336 24.4855 415.527 30.1342 411.628 36.8268ZM410.028 26.3297C411.526 26.1209 412.034 28.4871 410.321 28.8003L407.92 29.1135C406.421 29.4266 405.812 26.9561 407.514 26.6429L410.028 26.3297ZM197.65 190.988C196.85 192.636 194.652 191.394 195.351 189.956L195.948 188.622C196.748 187.08 198.946 188.309 198.146 189.759L197.65 190.988ZM201.448 182.858C200.648 184.4 198.45 183.275 199.25 181.721L200.355 179.459C201.053 177.916 203.251 179.146 202.552 180.584L201.448 182.858ZM205.945 173.799C205.246 175.237 202.947 174.205 203.747 172.662L204.942 170.4C205.64 168.962 207.838 169.994 207.139 171.641L205.945 173.799ZM210.746 164.949C209.844 166.492 207.748 165.053 208.548 163.708L209.844 161.446C210.746 159.903 212.741 161.342 211.94 162.675L210.746 164.949ZM215.75 156.203C214.848 157.641 212.752 156.308 213.654 154.869L214.95 152.712C215.75 151.274 217.948 152.608 217.046 154.046L215.75 156.203ZM221.047 147.562C220.247 148.896 218.049 147.666 218.951 146.228L220.348 144.071C221.148 142.737 223.346 143.966 222.343 145.509L221.047 147.562ZM226.547 139.222C225.544 140.556 223.65 139.014 224.552 137.68L225.949 135.627C226.952 134.293 228.947 135.835 227.944 137.169L226.547 139.222ZM232.34 130.987C231.337 132.321 229.443 130.778 230.435 129.444L231.934 127.391C232.937 126.058 234.83 127.705 233.827 128.934L232.34 130.987ZM238.144 123.274C237.242 123.784 236.149 122.961 236.239 121.94C236.138 121.325 236.634 120.502 237.344 120.397L238.144 119.365C239.147 118.135 241.142 119.678 240.049 121.012L239.846 121.325L240.24 121.43C241.841 122.044 240.838 124.41 239.339 123.796L238.144 123.274ZM244.85 115.247C243.644 116.488 241.953 114.737 243.047 113.496L244.647 111.64C245.842 110.306 247.543 112.15 246.45 113.287L244.85 115.247ZM251.544 107.731C250.44 108.961 248.546 107.221 249.741 105.98L251.443 104.124C252.547 102.894 254.339 104.634 253.246 105.875L251.544 107.731ZM258.442 100.528C257.146 101.665 255.545 99.7047 256.74 98.6724L258.442 96.921C259.738 95.6799 261.338 97.6401 260.245 98.7768L258.442 100.528ZM265.643 93.5341C264.438 94.6708 262.747 92.8149 263.942 91.6782L265.846 89.9268C267.041 88.7901 268.743 90.7503 267.447 91.887L265.643 93.5341ZM273.037 86.9459C271.932 87.9782 270.242 86.1223 271.538 84.9972L273.443 83.3502C274.84 82.2135 276.238 84.3825 274.941 85.3104L273.037 86.9459ZM280.836 80.5664C279.438 81.5988 278.041 79.5341 279.337 78.6062L281.242 77.0636C282.639 76.0312 284.037 78.0959 282.741 79.0238L280.836 80.5664ZM288.736 74.593C287.542 75.5209 285.941 73.5607 287.339 72.54C288.038 72.0296 288.736 71.5077 289.435 71.1017C290.63 70.1738 292.23 72.134 290.833 73.1547C290.145 73.6651 289.446 74.0826 288.736 74.593ZM296.941 68.9327C295.544 69.8606 294.338 67.5988 295.645 66.7753L297.741 65.4414C299.139 64.5135 300.446 66.7753 299.037 67.5988L296.941 68.9327ZM305.338 63.69C304.042 64.5135 302.644 62.3561 304.143 61.4282L306.341 60.1987C307.637 59.3751 309.034 61.5326 307.535 62.4605L305.338 63.69ZM314.038 58.7488C312.438 59.5723 311.435 57.2061 312.832 56.487L315.03 55.2575C316.529 54.5384 317.633 56.9046 316.236 57.6237L314.038 58.7488ZM322.84 54.2252C321.443 54.9443 320.237 52.6825 321.736 51.859C322.536 51.5459 323.235 51.1399 324.035 50.8267C325.433 50.1076 326.537 52.3694 325.038 53.0885C324.339 53.4945 323.539 53.8077 322.84 54.2252ZM331.834 50.0032C330.234 50.6179 329.434 48.2518 330.831 47.637L333.13 46.6047C334.731 45.99 335.531 48.4489 334.032 48.9709L331.834 50.0032ZM340.94 46.1871C339.442 46.8019 338.54 44.4357 340.039 43.8209L342.439 42.893C343.837 42.2783 344.84 44.6445 343.24 45.2592L340.94 46.1871ZM350.238 42.6959C348.74 43.2062 347.838 40.84 349.438 40.3297C350.238 40.0165 351.039 39.7149 351.839 39.5061C353.236 38.8914 354.138 41.2576 352.538 41.8723C351.737 42.1739 351.039 42.3827 350.238 42.6959ZM359.638 39.6105C357.936 40.0165 357.44 37.5575 358.939 37.1399L361.34 36.4208C362.94 36.0149 363.537 38.4738 361.937 38.8914L359.638 39.6105ZM369.139 36.8268C367.538 37.2443 366.941 34.7738 368.542 34.3562L370.942 33.7415C372.441 33.3355 373.14 35.7945 371.539 36.212L369.139 36.8268ZM378.73 34.4606C377.231 34.8666 376.431 32.4076 378.133 31.8856L380.635 31.3753C382.336 31.0621 382.641 33.6371 381.13 33.8458L378.73 34.4606ZM388.332 32.3032C386.732 32.6164 386.337 30.1458 387.938 29.8326L390.338 29.4266C392.04 29.1135 392.435 31.584 390.834 31.8972L388.332 32.3032ZM398.126 30.5517C396.526 30.8649 396.03 28.3943 397.732 28.0812L400.132 27.6752C401.733 27.362 402.228 29.937 400.527 30.2502L398.126 30.5517ZM65.1559 130.164C62.3496 132.843 63.161 132.53 56.6581 130.477C50.9553 128.725 53.6602 128.006 48.5547 131.091C43.9564 133.771 36.4504 136.647 32.9566 138.805C34.2527 141.786 45.4554 151.564 48.1603 155.577C47.1572 156.087 46.357 156.4 45.2638 156.911C43.562 157.839 43.9677 157.839 41.9616 156.598C37.5662 154.023 23.467 145.683 20.6607 144.558C16.964 146.205 7.15885 151.355 3.76648 151.146C2.1661 151.042 -0.437344 150.531 0.0698196 148.467C1.36591 143.421 10.168 140.649 15.8708 138.074C18.1699 137.042 17.5726 137.251 18.0685 134.676C18.6658 131.799 22.4752 111.733 23.3656 110.701C23.6699 110.387 26.8594 108.949 27.468 108.74C27.7723 110.596 27.9751 112.545 28.0653 114.505L29.0683 126.034C29.0683 127.786 29.3726 130.048 29.6657 131.695C32.2691 130.454 34.8613 129.224 37.5662 127.995C50.9666 121.406 48.4646 125.837 51.6653 118.425C53.4686 114.308 53.3671 111.837 57.3681 112.452C56.6581 120.699 58.8558 125.849 65.1559 130.164ZM62.2594 119.98C60.7605 120.49 61.3578 122.856 63.0596 122.45L65.3588 121.627C66.7563 121.209 66.2604 118.75 64.5586 119.156L62.2594 119.98ZM322.739 175.341C324.035 176.478 325.433 174.414 324.238 173.393L323.235 172.569C321.837 171.433 320.44 173.497 321.634 174.53L322.739 175.341ZM315.841 169.681C317.138 170.714 318.637 168.753 317.442 167.721L315.447 166.074C314.151 165.042 312.652 167.106 313.948 168.127L315.841 169.681ZM308.042 163.511C309.237 164.543 310.837 162.583 309.541 161.458L307.547 159.915C306.25 158.987 304.65 160.947 306.048 161.98L308.042 163.511ZM300.041 157.537C301.438 158.569 302.745 156.308 301.438 155.484L299.342 154.046C297.944 153.014 296.637 155.287 297.944 156.099L300.041 157.537ZM291.836 151.877C293.233 152.805 294.541 150.647 293.233 149.719L291.137 148.386C289.739 147.458 288.342 149.522 289.739 150.45L291.836 151.877ZM283.541 146.425C284.837 147.249 286.234 145.196 284.735 144.268L282.639 142.934C281.343 142.11 279.946 144.164 281.343 145.091L283.541 146.425ZM274.941 141.275C276.542 142.099 277.545 139.837 276.238 139.014L274.04 137.784C272.541 136.961 271.436 139.222 272.845 140.046L274.941 141.275ZM266.342 136.439C267.841 137.158 268.844 134.896 267.447 134.177L265.249 132.936C263.75 132.217 262.646 134.478 264.145 135.198L266.342 136.439ZM257.439 131.915C258.938 132.634 260.042 130.372 258.532 129.549L256.334 128.517C254.937 127.797 253.731 129.955 255.23 130.778L257.439 131.915ZM248.546 127.693C250.147 128.308 250.947 125.942 249.448 125.327L247.149 124.295C245.65 123.68 244.748 126.046 246.247 126.661L248.546 127.693ZM230.142 120.281C231.844 120.792 232.34 118.321 230.942 117.915L228.542 117.092C226.84 116.581 226.344 119.052 227.741 119.458L230.142 120.281ZM220.743 117.196C222.242 117.706 222.94 115.236 221.441 114.725L219.041 114.006C217.44 113.589 216.742 116.059 218.342 116.477L220.743 117.196ZM211.242 114.528C212.639 114.934 213.541 112.58 211.839 112.058L209.438 111.443C207.635 111.037 207.342 113.6 208.841 113.913L211.242 114.528ZM201.651 112.162C203.251 112.475 203.645 110.005 202.147 109.691L199.645 109.181C198.044 108.868 197.548 111.338 199.137 111.652L201.651 112.162ZM191.947 110.306C193.446 110.619 194.043 108.149 192.341 107.731C191.541 107.627 190.64 107.418 189.839 107.325C188.34 107.012 187.743 109.483 189.445 109.9C190.245 109.993 191.147 110.097 191.947 110.306ZM182.153 108.763C183.855 108.972 184.058 106.397 182.457 106.293L180.057 105.98C178.355 105.771 178.152 108.346 179.752 108.45L182.153 108.763ZM172.348 107.731C173.948 107.836 174.253 105.365 172.551 105.156L170.049 104.947C168.55 104.739 168.155 107.314 169.947 107.522L172.348 107.731ZM162.554 107.012C164.256 107.116 164.154 104.541 162.655 104.541L160.153 104.437C158.452 104.333 158.452 106.908 160.052 106.908L162.554 107.012ZM152.647 106.803C154.248 106.803 154.349 104.228 152.647 104.228C151.847 104.228 150.946 104.228 150.145 104.228C148.646 104.228 148.444 106.803 150.145 106.803C151.058 106.803 151.847 106.803 152.647 106.803ZM142.752 107.012C144.555 106.803 144.251 104.333 142.651 104.437L140.25 104.541C138.548 104.646 138.751 107.221 140.351 107.116L142.752 107.012ZM132.958 107.522C134.558 107.418 134.356 104.843 132.755 104.947L130.253 105.156C128.653 105.261 128.856 107.836 130.456 107.731L132.958 107.522ZM123.153 108.45C124.652 108.346 124.55 105.771 122.849 105.98C122.048 106.084 121.147 106.189 120.347 106.293C118.848 106.397 118.949 108.972 120.651 108.763C121.451 108.659 122.251 108.555 123.153 108.45ZM113.359 109.784C115.061 109.471 114.464 107.012 112.965 107.314L110.451 107.627C108.851 108.044 109.347 110.515 110.846 110.202L113.359 109.784ZM103.554 111.536C105.154 111.222 104.76 108.659 103.159 108.961L100.657 109.471C99.1584 109.784 99.5529 112.255 101.153 111.942L103.554 111.536ZM93.9515 113.496C95.4505 113.287 95.056 110.724 93.3542 111.025L90.9536 111.64C89.2518 112.058 90.052 114.517 91.551 114.111L93.9515 113.496ZM84.3605 115.966C85.9609 115.456 85.2621 112.986 83.6617 113.496L81.2612 114.111C79.6608 114.517 80.3595 116.987 81.9599 116.581L84.3605 115.966ZM74.7582 118.646C76.3586 118.24 75.7613 115.665 74.0594 116.175L71.7603 116.894C70.2613 117.3 70.7572 119.771 72.4591 119.365L74.7582 118.646ZM522.517 106.397C521.018 106.908 521.615 109.274 523.317 108.868L525.616 108.044C527.013 107.627 526.619 105.168 524.816 105.678L522.517 106.397ZM782.996 161.864C784.292 162.896 785.791 160.831 784.495 159.903L783.492 158.975C782.094 157.839 780.697 160.008 781.892 160.936L782.996 161.864ZM776.099 156.203C777.406 157.236 778.894 155.171 777.699 154.15L775.693 152.608C774.397 151.575 772.887 153.535 774.194 154.568L776.099 156.203ZM768.3 149.928C769.494 150.96 771.095 149 769.799 147.968L767.804 146.425C766.508 145.393 764.907 147.353 766.305 148.478L768.3 149.928ZM760.298 144.059C761.695 144.987 763.003 142.83 761.695 141.902L759.7 140.463C758.201 139.536 756.894 141.705 758.303 142.621L760.298 144.059ZM752.104 138.294C753.502 139.222 754.798 137.065 753.502 136.137L751.405 134.803C750.008 133.875 748.7 136.044 750.008 136.961L752.104 138.294ZM743.798 132.843C745.105 133.771 746.503 131.706 745.105 130.686L742.908 129.352C741.713 128.528 740.214 130.581 741.713 131.613L743.798 132.843ZM735.3 127.693C736.799 128.517 737.802 126.255 736.506 125.536L734.308 124.202C732.809 123.483 731.705 125.744 733.114 126.464L735.3 127.693ZM726.611 122.856C728.11 123.575 729.214 121.418 727.704 120.594L725.506 119.458C724.007 118.634 723.004 121 724.402 121.72L726.611 122.856ZM717.707 118.333C719.206 119.052 720.311 116.79 718.812 116.071L716.614 114.934C715.216 114.215 714.022 116.477 715.509 117.196L717.707 118.333ZM708.804 114.111C710.404 114.725 711.204 112.359 709.705 111.744L707.508 110.712C705.907 110.097 705.005 112.568 706.504 113.078L708.804 114.111ZM699.607 110.306C701.106 110.921 702.098 108.555 700.509 107.836L698.209 107.012C696.711 106.397 695.809 108.763 697.308 109.378L699.607 110.306ZM690.41 106.803C692.112 107.314 692.608 104.75 691.211 104.333L688.81 103.509C687.108 102.999 686.612 105.469 688.01 105.98L690.41 106.803ZM681.011 103.614C682.611 104.124 683.209 101.665 681.71 101.247L679.309 100.528C677.709 100.018 677.01 102.488 678.61 102.894L681.011 103.614ZM671.51 100.946C672.908 101.352 673.809 98.9856 672.107 98.4752L669.707 97.8605C667.904 97.4545 667.599 100.018 669.109 100.331L671.51 100.946ZM661.908 98.6724C663.508 98.9856 663.903 96.4106 662.404 96.0974L659.902 95.5871C658.301 95.2739 657.896 97.7445 659.507 98.0577L661.908 98.6724ZM652.215 96.7238C653.714 97.037 654.323 94.5664 652.61 94.2532C651.81 94.0444 651.009 93.94 650.108 93.7429C648.71 93.5341 648.011 96.0046 649.713 96.3178C650.615 96.4106 651.415 96.6194 652.215 96.7238ZM642.41 95.1811C644.112 95.3899 644.315 92.9193 642.714 92.7105L640.314 92.3974C638.612 92.1886 638.409 94.7636 640.01 94.868L642.41 95.1811ZM632.616 94.1488C634.217 94.3576 634.51 91.7826 632.819 91.5738L630.317 91.3651C628.818 91.2607 628.412 93.7313 630.216 93.94L632.616 94.1488ZM622.811 93.5341C624.513 93.5341 624.411 90.9591 622.912 90.9591L620.41 90.8547C618.709 90.8547 618.709 93.3253 620.309 93.4297L622.811 93.5341ZM612.916 93.2209C614.516 93.2209 614.618 90.7503 612.916 90.6459C612.116 90.6459 611.214 90.6459 610.414 90.6459C608.915 90.6459 608.712 93.2209 610.414 93.2209C611.315 93.2209 612.116 93.2209 612.916 93.2209ZM603.02 93.4297C604.824 93.3253 604.519 90.7503 602.919 90.8547L600.518 90.9591C598.817 91.0635 599.019 93.6385 600.62 93.5341L603.02 93.4297ZM593.215 93.94C594.816 93.8356 594.714 91.2607 593.012 91.4695L590.51 91.6782C588.91 91.7826 589.113 94.2532 590.713 94.1488L593.215 93.94ZM583.421 94.9723C584.92 94.7636 584.819 92.1886 583.117 92.3974C582.317 92.5018 581.415 92.6061 580.615 92.7105C579.116 92.8149 579.217 95.3899 580.919 95.1811C581.719 95.0767 582.52 94.9723 583.421 94.9723ZM573.616 96.2018C575.318 95.8887 574.709 93.4297 573.222 93.7313L570.72 94.1372C569.119 94.4504 569.615 96.921 571.114 96.6078L573.616 96.2018ZM563.811 97.9533C565.411 97.6401 565.017 95.1811 563.417 95.4827L560.926 95.8887C559.427 96.2018 559.821 98.7652 561.422 98.4636L563.811 97.9533ZM554.22 100.018C555.719 99.7047 555.324 97.1413 553.623 97.5473L551.222 98.0577C549.52 98.568 550.32 100.946 551.819 100.528L554.22 100.018ZM544.618 102.384C546.218 101.874 545.519 99.5075 544.02 99.9135L541.518 100.528C539.918 101.039 540.617 103.405 542.217 102.999L544.618 102.384ZM535.117 105.052C536.616 104.646 536.018 102.175 534.418 102.581L532.017 103.3C530.518 103.706 531.014 106.281 532.716 105.771L535.117 105.052Z" fill="#CCCCCC"/>
</g>
<defs>
<clipPath id="clip0_1_670">
<rect width="785" height="191" fill="white" transform="translate(0 0.765625)"/>
</clipPath>
</defs>
</svg>
