<svg width="24" height="25" viewBox="0 0 24 25" fill="none" xmlns="http://www.w3.org/2000/svg">
<path d="M8.23176 23.1391V19.4097C8.23176 18.4577 9.00915 17.686 9.96812 17.686H13.4736C13.9341 17.686 14.3758 17.8676 14.7014 18.1909C15.027 18.5141 15.21 18.9526 15.21 19.4097V23.1391C15.2071 23.5349 15.3634 23.9154 15.6443 24.1963C15.9252 24.4772 16.3074 24.6352 16.7061 24.6352H19.0977C20.2146 24.6381 21.2869 24.1996 22.0777 23.4165C22.8685 22.6335 23.313 21.5702 23.313 20.4613V9.837C23.313 8.94129 22.913 8.09166 22.2209 7.517L14.0852 1.06651C12.6699 -0.0644793 10.6422 -0.0279624 9.26921 1.15324L1.31906 7.517C0.594261 8.07472 0.161056 8.92687 0.139648 9.837V20.4505C0.139648 22.7616 2.02691 24.6352 4.35497 24.6352H6.69196C7.52003 24.6352 8.19299 23.972 8.19899 23.1499L8.23176 23.1391Z" fill="#FA7436"/>
</svg>
