<svg width="26" height="26" viewBox="0 0 26 26" fill="none" xmlns="http://www.w3.org/2000/svg">
<path d="M12.1071 0.884277C15.135 0.884277 17.6044 3.31138 17.6044 6.29952V12.1416H10.1589C9.62526 12.1416 9.20335 12.5563 9.20335 13.0808C9.20335 13.593 9.62526 14.0199 10.1589 14.0199H17.6044V19.8498C17.6044 22.838 15.135 25.2773 12.0823 25.2773H6.03899C2.99873 25.2773 0.529297 22.8502 0.529297 19.862V6.31172C0.529297 3.31138 3.01114 0.884277 6.0514 0.884277H12.1071ZM20.7025 8.87323C21.0684 8.49514 21.6661 8.49514 22.032 8.86103L25.5933 12.4102C25.7763 12.5932 25.8739 12.8249 25.8739 13.081C25.8739 13.325 25.7763 13.5689 25.5933 13.7396L22.032 17.2888C21.849 17.4718 21.6051 17.5693 21.3734 17.5693C21.1294 17.5693 20.8855 17.4718 20.7025 17.2888C20.3367 16.9229 20.3367 16.3253 20.7025 15.9594L22.654 14.0202H17.6046V12.1419H22.654L20.7025 10.2026C20.3367 9.83675 20.3367 9.23912 20.7025 8.87323Z" fill="white"/>
</svg>
